<svg xmlns="http://www.w3.org/2000/svg" width="24.907" height="19.735" viewBox="0 0 24.907 19.735">
  <path id="np_faq_2850832_000000" d="M39.385,33.773c0,4.84-5.578,8.778-12.435,8.778a16.492,16.492,0,0,1-6.475-1.273c-.03.093-.059.185-.085.276A3.551,3.551,0,0,0,20.3,43.7a.732.732,0,0,1-1.219.778c-5-5.713-4.641-10.142-4.563-10.761C14.556,28.9,20.119,25,26.95,25a15.5,15.5,0,0,1,8.684,2.476,1,1,0,0,1,.085.066.732.732,0,0,1-.934,1.125,14.053,14.053,0,0,0-7.835-2.2c-6.049,0-10.972,3.281-10.972,7.314a.9.9,0,0,1-.01.121c-.005.033-.459,3.326,2.86,7.929q.058-.315.154-.668A11.053,11.053,0,0,1,19.392,40a.733.733,0,0,1,1-.374,14.714,14.714,0,0,0,6.556,1.459c6.049,0,10.972-3.281,10.972-7.314a5.341,5.341,0,0,0-1.129-3.222.731.731,0,0,1,1.174-.872,6.861,6.861,0,0,1,1.418,4.094Zm-11.7.876a1.473,1.473,0,0,1,.732-1.269,2.926,2.926,0,1,0-3.837-4.245.731.731,0,0,0,.709,1.159.729.729,0,0,0,.477-.3,1.463,1.463,0,1,1,1.919,2.123,2.934,2.934,0,0,0-1.462,2.535v.587a.731.731,0,0,0,1.462,0Zm-.731,2.781a.731.731,0,1,0,.731.731.732.732,0,0,0-.731-.731Z" transform="translate(-14.478 -24.993)" fill="#fff"/>
</svg>
