<svg xmlns="http://www.w3.org/2000/svg" width="22.126" height="28.027" viewBox="0 0 22.126 28.027">
  <path id="np_flowchart_1492818_000000" d="M31.171,16.222V11.8H26.746v4.425Zm-14.75,0V11.8H12v4.425ZM17.9,11.059v2.212h2.95V4.422H17.9V6.635a.738.738,0,0,1-.738.738h-5.9a.738.738,0,0,1-.738-.738V.734A.738.738,0,0,1,11.257,0h5.9A.738.738,0,0,1,17.9.734V2.946h3.687a.738.738,0,0,1,.738.738v9.587h2.95V11.059a.738.738,0,0,1,.738-.738h5.9a.738.738,0,0,1,.738.738v5.9a.738.738,0,0,1-.738.738h-5.9a.738.738,0,0,1-.738-.738V14.747H22.32v9.587a.738.738,0,0,1-.738.738H17.9v2.212a.738.738,0,0,1-.738.738h-5.9a.738.738,0,0,1-.738-.738v-5.9a.738.738,0,0,1,.738-.738h5.9a.738.738,0,0,1,.738.738V23.6h2.95V14.748H17.9v2.212a.738.738,0,0,1-.738.738h-5.9a.738.738,0,0,1-.738-.738v-5.9a.738.738,0,0,1,.738-.738h5.9a.738.738,0,0,1,.738.738ZM16.421,5.9V1.472H12V5.9Zm0,20.649V22.121H12v4.425Z" transform="translate(-10.519 0.004)" fill="#314ab2"/>
</svg>
