<svg xmlns="http://www.w3.org/2000/svg" width="21.797" height="20.514" viewBox="0 0 21.797 20.514">
  <g id="Group_713" data-name="Group 713" transform="translate(-28 -13.561)">
    <g id="np_book_60334_000000" transform="translate(28 13.561)">
      <path id="Path_92" data-name="Path 92" d="M26.064,7.734l-9.471,3.5H15.248l-9.514-3.5A.668.668,0,0,0,5,8.305V24.283a.667.667,0,0,0,.733.571l9.514,3.395h1.345l9.471-3.395a.667.667,0,0,0,.733-.571V8.305a.667.667,0,0,0-.733-.571ZM6.366,23.509V9.08l8.881,3.5V26.9Zm19.044,0L16.593,26.9V12.58l8.817-3.5Z" transform="translate(-5 -7.734)" fill="#fff"/>
      <path id="Path_93" data-name="Path 93" d="M22.3,31.874,16.183,29.15V27.8L22.3,30.528Z" transform="translate(-13.478 -22.95)" fill="#fff"/>
      <path id="Path_94" data-name="Path 94" d="M22.3,45.929,16.183,43.2V41.859L22.3,44.583Z" transform="translate(-13.478 -33.606)" fill="#fff"/>
      <path id="Path_95" data-name="Path 95" d="M22.3,59.99l-6.122-2.724V55.921L22.3,58.645Z" transform="translate(-13.478 -44.266)" fill="#fff"/>
      <path id="Path_96" data-name="Path 96" d="M64.571,29.146l-6.122,2.767V30.567L64.571,27.8v1.345Z" transform="translate(-45.521 -22.947)" fill="#fff"/>
      <path id="Path_97" data-name="Path 97" d="M64.571,43.208l-6.122,2.767V44.63l6.122-2.767v1.344Z" transform="translate(-45.521 -33.609)" fill="#fff"/>
      <path id="Path_98" data-name="Path 98" d="M64.571,57.265l-6.122,2.767V58.687l6.122-2.767v1.344Z" transform="translate(-45.521 -44.266)" fill="#fff"/>
    </g>
  </g>
</svg>
