<svg id="np_menu_3238909_FFFFFF" xmlns="http://www.w3.org/2000/svg" width="68.875" height="68.32" viewBox="0 0 68.875 68.32">
  <path id="Path_4" data-name="Path 4" d="M45.059,52.9a1.774,1.774,0,0,1,1.77,1.773V82.386a1.771,1.771,0,0,1-1.77,1.773H17.34a1.774,1.774,0,0,1-1.773-1.773V54.671A1.775,1.775,0,0,1,17.34,52.9Zm-3.547,5.328H20.9v20.6H41.512Z" transform="translate(-15.566 -15.84)" fill="#fff"/>
  <path id="Path_5" data-name="Path 5" d="M80.875,52.9a1.774,1.774,0,0,1,1.785,1.773V82.386a1.774,1.774,0,0,1-1.785,1.773H53.16a1.772,1.772,0,0,1-1.773-1.773V54.671A1.772,1.772,0,0,1,53.16,52.9Zm-3.547,5.328H56.715v20.6H77.328Z" transform="translate(-15.566 -15.84)" fill="#fff"/>
  <path id="Path_6" data-name="Path 6" d="M67.566,15.84a16.871,16.871,0,1,1-11.93,4.938,16.882,16.882,0,0,1,11.93-4.938Zm0,5.328v0A11.545,11.545,0,1,0,78.75,32.711,11.551,11.551,0,0,0,67.566,21.172Z" transform="translate(-15.566 -15.84)" fill="#fff"/>
  <path id="Path_7" data-name="Path 7" d="M45.059,17.047a1.774,1.774,0,0,1,1.77,1.77V46.59a1.771,1.771,0,0,1-1.77,1.773H17.34a1.774,1.774,0,0,1-1.773-1.773V18.851a1.774,1.774,0,0,1,1.773-1.8Zm-3.547,5.316H20.9V43.011H41.512Z" transform="translate(-15.566 -15.84)" fill="#fff"/>
</svg>
