<?xml version="1.0" encoding="iso-8859-1"?>
<!-- Generator: Adobe Illustrator 21.0.0, SVG Export Plug-In . SVG Version: 6.00 Build 0)  -->
<svg xmlns="http://www.w3.org/2000/svg" xmlns:xlink="http://www.w3.org/1999/xlink" version="1.1" id="Capa_1" x="0px" y="0px" viewBox="0 0 495 495" style="enable-background:new 0 0 495 495;" xml:space="preserve" width="512" height="512">
<g>
	<path style="fill:#F7931E;" d="M415.502,145.013v24.486c0,3.314,2.686,6,6,6h20.001c3.314,0,6-2.686,6-6v-24.501L415.502,145.013z"/>
	<path style="fill:#29ABE2;" d="M457.501,431.499h-52c-3.314,0-6-2.686-6-6v-44c0-3.314,2.686-6,6-6h52c3.314,0,6,2.686,6,6v44   C463.501,428.812,460.815,431.499,457.501,431.499z"/>
	<path style="fill:#57565C;" d="M31.501,147.999V209.5c0,3.314,2.686,6,6,6h28c3.314,0,6-2.686,6-6v-61.501H31.501z"/>
	<path style="fill:#3E3D42;" d="M51.501,147.999V209.5c0,3.314-2.686,6-6,6h20c3.314,0,6-2.686,6-6v-61.501H51.501z"/>
	<path style="fill:#C6C5CA;" d="M15.5,145.497v-12.001c0-3.314,2.686-6,6-6h451.999c3.314,0,6,2.686,6,6v12.001c0,3.314-2.686,6-6,6   H21.5C18.186,151.497,15.5,148.811,15.5,145.497z"/>
	<path style="fill:#AAA9AD;" d="M473.499,127.497h-20c3.314,0,6,2.686,6,6v12.001c0,3.314-2.686,6-6,6h20c3.314,0,6-2.686,6-6   v-12.001C479.499,130.183,476.813,127.497,473.499,127.497z"/>
	<path style="fill:#F7931E;" d="M151.502,13.504v146.744h47.999V13.5c0-3.314-2.687-6-6.001-6l-36,0.004   C154.188,7.504,151.502,10.191,151.502,13.504z"/>
	<path style="fill:#F7831E;" d="M199.502,160.248h-20V7.505h14c3.314,0,6,2.686,6,6V160.248z"/>
	<rect x="119.503" y="187.498" style="fill:#57565C;" width="24" height="264.002"/>
	<rect x="207.503" y="187.498" style="fill:#57565C;" width="24" height="264.002"/>
	<path style="fill:#898890;" d="M239.502,156.498l8,18.999v18.001c0,3.314-2.686,6-6,6H109.501c-3.314,0-6-2.686-6-6v-18.001   l8.001-18.999H239.502z"/>
	<path style="fill:#74747A;" d="M239.502,156.498h-20.125l8,18.999v18.001c0,3.314-2.686,6-6,6h20.125c3.314,0,6-2.686,6-6v-18.001   L239.502,156.498z"/>
	<g>
		<path style="fill:#898890;" d="M287.501,487.5v-30.001c0-3.314-2.686-6-6-6h-212c-3.314,0-6,2.686-6,6V487.5H287.501z"/>
		<path style="fill:#74747A;" d="M281.501,451.499h-20c3.314,0,6,2.686,6,6V487.5h20v-30.001    C287.501,454.185,284.815,451.499,281.501,451.499z"/>
	</g>
	<path style="fill:#F7931E;" d="M103.501,457.5v-12.003c0-3.314,2.686-6,6-6H241.5c3.314,0,6,2.686,6,6V457.5c0,3.314-2.686,6-6,6   H109.501C106.187,463.5,103.501,460.814,103.501,457.5z"/>
	<path style="fill:#F7831E;" d="M241.5,439.497h-20c3.314,0,6,2.686,6,6V457.5c0,3.314-2.686,6-6,6h20c3.314,0,6-2.686,6-6v-12.003   C247.5,442.184,244.814,439.497,241.5,439.497z"/>
	<path style="fill:#F7931E;" d="M249.502,175.499h-148c-3.314,0-6-2.686-6-6v-12.001c0-3.314,2.686-6,6-6h148c3.314,0,6,2.686,6,6   v12.001C255.502,172.812,252.816,175.499,249.502,175.499z"/>
	<path style="fill:#F7831E;" d="M249.502,151.498h-20.002c3.314,0,6,2.686,6,6v12c0,3.314-2.686,6-6,6h20.002c3.314,0,6-2.686,6-6   v-12C255.502,154.185,252.816,151.498,249.502,151.498z"/>
</g>
<g>
	<circle cx="175.5" cy="111.497" r="7.5"/>
	<path d="M486.962,126.759c-0.009-0.094-0.027-0.185-0.04-0.278c-0.02-0.145-0.038-0.291-0.066-0.434   c-0.028-0.141-0.065-0.278-0.101-0.416c-0.024-0.093-0.044-0.187-0.072-0.28c-0.046-0.153-0.101-0.302-0.156-0.452   c-0.028-0.076-0.053-0.154-0.084-0.229c-0.059-0.145-0.126-0.285-0.194-0.425c-0.038-0.079-0.073-0.159-0.114-0.237   c-0.065-0.124-0.137-0.242-0.209-0.362c-0.055-0.091-0.107-0.184-0.166-0.273c-0.065-0.099-0.136-0.193-0.206-0.288   c-0.075-0.103-0.149-0.207-0.229-0.306c-0.063-0.078-0.131-0.151-0.197-0.226c-0.095-0.108-0.189-0.216-0.29-0.319   c-0.065-0.066-0.136-0.128-0.204-0.192c-0.107-0.101-0.214-0.203-0.328-0.298c-0.083-0.07-0.172-0.133-0.258-0.199   c-0.104-0.079-0.205-0.16-0.314-0.234c-0.132-0.091-0.271-0.172-0.409-0.255c-0.069-0.041-0.134-0.085-0.204-0.124   c-0.239-0.132-0.485-0.252-0.74-0.358L202.46,0.608c-0.462-0.198-0.946-0.353-1.45-0.456C200.507,0.048,200.002,0,199.501,0   h-47.998c-0.043,0-0.085,0.006-0.128,0.006c-0.129,0.002-0.257,0.011-0.386,0.02c-0.121,0.008-0.242,0.015-0.361,0.029   c-0.118,0.014-0.236,0.035-0.354,0.054c-0.126,0.021-0.253,0.04-0.377,0.067c-0.109,0.024-0.217,0.055-0.326,0.084   c-0.128,0.034-0.257,0.067-0.382,0.107c-0.104,0.034-0.207,0.075-0.31,0.113c-0.125,0.047-0.251,0.092-0.373,0.146   c-0.1,0.044-0.198,0.095-0.296,0.143c-0.121,0.059-0.243,0.118-0.36,0.184c-0.094,0.053-0.185,0.112-0.278,0.169   c-0.118,0.073-0.236,0.145-0.349,0.224c-0.086,0.06-0.17,0.126-0.255,0.19c-0.114,0.087-0.227,0.174-0.335,0.267   c-0.03,0.025-0.062,0.046-0.091,0.072L10.538,121.873c-0.054,0.048-0.101,0.1-0.153,0.149c-0.099,0.093-0.197,0.186-0.291,0.284   c-0.084,0.087-0.163,0.176-0.242,0.267c-0.08,0.092-0.158,0.184-0.234,0.28c-0.08,0.101-0.155,0.203-0.229,0.306   c-0.067,0.094-0.132,0.189-0.194,0.286c-0.069,0.108-0.136,0.217-0.199,0.328c-0.058,0.102-0.114,0.205-0.168,0.31   c-0.056,0.109-0.109,0.219-0.159,0.33c-0.052,0.114-0.1,0.229-0.146,0.346c-0.042,0.107-0.081,0.214-0.118,0.322   c-0.042,0.124-0.081,0.248-0.117,0.375c-0.031,0.108-0.058,0.216-0.084,0.325c-0.03,0.127-0.057,0.254-0.08,0.383   c-0.021,0.117-0.038,0.234-0.054,0.352c-0.016,0.121-0.03,0.243-0.04,0.366c-0.011,0.132-0.016,0.265-0.02,0.398   C8.009,127.352,8,127.423,8,127.497v24c0,4.143,3.358,7.5,7.5,7.5h8.501V215.5c0,4.143,3.358,7.5,7.5,7.5h40   c4.142,0,7.5-3.357,7.5-7.5v-56.503h9.001v16.502c0,4.143,3.358,7.5,7.5,7.5h0.499v16.5c0,4.143,3.358,7.5,7.5,7.5h8.503   l-0.001,224.998h-8.501c-4.142,0-7.5,3.357-7.5,7.5v4.502h-32.5c-4.142,0-7.5,3.357-7.5,7.5l0,28.501H23.502   c-4.142,0-7.5,3.357-7.5,7.5s3.358,7.5,7.5,7.5h304.001c4.143,0,7.5-3.357,7.5-7.5s-3.357-7.5-7.5-7.5h-32.499v-28.501   c0-4.143-3.357-7.5-7.5-7.5h-32.501v-4.502c0-4.143-3.358-7.5-7.5-7.5h-8.5V206.999h8.499c4.142,0,7.501-3.357,7.501-7.5v-16.5h0.5   h159.999h8.499v130.235c-9.29,3.138-15.999,11.93-15.999,22.265c0,4.674,1.377,9.03,3.74,12.694l-18.097,22.621   c-0.049,0.061-0.089,0.125-0.135,0.187c-0.093,0.124-0.187,0.248-0.273,0.378c-0.059,0.089-0.11,0.18-0.165,0.271   c-0.071,0.119-0.143,0.238-0.208,0.361c-0.054,0.104-0.102,0.209-0.152,0.315c-0.054,0.115-0.108,0.23-0.157,0.348   c-0.047,0.115-0.086,0.232-0.128,0.349c-0.039,0.113-0.08,0.225-0.114,0.341c-0.038,0.126-0.067,0.253-0.098,0.38   c-0.026,0.11-0.055,0.219-0.076,0.33c-0.027,0.14-0.045,0.28-0.064,0.42c-0.014,0.102-0.03,0.204-0.04,0.307   c-0.014,0.157-0.019,0.315-0.024,0.472c-0.002,0.076-0.011,0.149-0.011,0.226v55.999c0,4.143,3.357,7.5,7.5,7.5h64.001   c4.143,0,7.5-3.357,7.5-7.5v-55.999c0-0.095-0.011-0.187-0.014-0.281c-0.005-0.135-0.008-0.27-0.02-0.404   c-0.011-0.122-0.03-0.242-0.047-0.362c-0.017-0.122-0.032-0.244-0.056-0.365c-0.024-0.128-0.056-0.253-0.087-0.379   c-0.027-0.111-0.053-0.222-0.085-0.332c-0.039-0.131-0.084-0.258-0.13-0.386c-0.036-0.101-0.07-0.203-0.111-0.303   c-0.054-0.134-0.115-0.263-0.177-0.392c-0.043-0.091-0.084-0.182-0.131-0.272c-0.072-0.138-0.152-0.271-0.233-0.404   c-0.047-0.077-0.09-0.155-0.14-0.23c-0.095-0.146-0.199-0.285-0.305-0.423c-0.038-0.05-0.07-0.102-0.109-0.151l-0.063-0.079   c-0.003-0.003-0.005-0.006-0.007-0.009l-18.025-22.532c2.362-3.664,3.74-8.02,3.74-12.694c0-10.336-6.71-19.128-16-22.266V182.999   h8.503c4.143,0,7.5-3.357,7.5-7.5v-16.502H479.5c4.143,0,7.5-3.357,7.5-7.5v-23.926   C487.002,127.299,486.989,127.028,486.962,126.759z M439.557,357.575l8.339,10.424h-32.79l8.34-10.424   c2.514,0.92,5.227,1.423,8.056,1.423C434.33,358.998,437.043,358.495,439.557,357.575z M456.002,423.998h-49.001v-40.999h49.001   V423.998z M431.502,343.998c-4.686,0-8.5-3.813-8.5-8.499c0-4.686,3.814-8.5,8.5-8.5c4.687,0,8.499,3.814,8.499,8.5   C440.001,340.186,436.188,343.998,431.502,343.998z M408.002,167.999H263.003v-9.002h144.999V167.999z M247.502,167.998   c-0.007,0-0.013,0.001-0.019,0.001H103.52c-0.007,0-0.013-0.001-0.019-0.001c-0.007,0-0.013,0.001-0.019,0.001h-0.479v-9.001   h145.001v9.001h-0.481C247.515,167.999,247.509,167.998,247.502,167.998z M144.003,119.997H35.336l108.666-95.878V119.997z    M207.002,18.874L442.96,119.997H207.002V18.874z M192.002,15v112.468c0,0.01-0.001,0.019-0.001,0.029   c0,0.01,0.001,0.019,0.001,0.029v16.472h-32.999V15H192.002z M23,134.997h121.003v9H23V134.997z M64.001,208h-25v-49.003h25V208z    M127.003,206.999h8.999v72.361c-0.001,0.028,0,0.055,0,0.082v0.007c0,0.016-0.002,0.032-0.002,0.048   c0,0.016,0.002,0.032,0.002,0.048v0.005c0,0.028-0.001,0.057,0,0.085v79.812c0,0.016-0.002,0.032-0.002,0.048   c0,0.016,0.002,0.032,0.002,0.048v72.452h-9.001L127.003,206.999z M191.898,206.999l-40.895,51.116v-51.116H191.898z    M159.107,431.997l40.896-51.116l0,51.116H159.107z M200.003,338.119l-40.897-51.121h40.897L200.003,338.119z M191.896,351.997   h-40.893v-51.115L191.896,351.997z M151.003,366.997H191.9l-40.897,51.118V366.997z M200.003,271.998h-40.897l40.897-51.119   L200.003,271.998z M149.553,471h97.949c4.142,0,7.5-3.357,7.5-7.5v-4.501h25.001V480H71.001l0-21.001h25v4.501   c0,4.143,3.358,7.5,7.5,7.5h16.002c4.142,0,7.5-3.357,7.5-7.5s-3.358-7.5-7.5-7.5h-8.502v-9.003h8.482   c0.007,0,0.013,0.001,0.019,0.001c0.007,0,0.013-0.001,0.019-0.001h23.924c0.02,0,0.038,0.003,0.058,0.003   c0.02,0,0.038-0.003,0.058-0.003h63.922c0.007,0,0.013,0.001,0.019,0.001c0.007,0,0.013-0.001,0.019-0.001h23.924   c0.02,0,0.038,0.003,0.058,0.003c0.02,0,0.038-0.003,0.058-0.003h8.442V456h-90.449c-4.142,0-7.5,3.357-7.5,7.5   S145.411,471,149.553,471z M224.003,431.997h-9.001l0.001-72.595c0-0.006,0-0.011,0-0.017l0.001-152.386h8.999V431.997z    M240.002,191.999H111.001v-9h129.001V191.999z M440.004,167.999h-17.002v-9.002h17.002V167.999z M472,143.997H207.002v-9H472   V143.997z"/>
</g>















</svg>
