<svg xmlns="http://www.w3.org/2000/svg" width="79.528" height="74.384" viewBox="0 0 79.528 74.384">
  <g id="np_customs_904677_FFFFFF" transform="translate(0.5 0.5)">
    <path id="Path_44" data-name="Path 44" d="M45.493,74.668a2.951,2.951,0,0,0,.475.664l1.138,1.138a.42.42,0,0,1,.1.475,3.32,3.32,0,0,0-.189.949c-.189.949-.475,1.9-.664,2.848,0,.189-.1.286,0,.475,0,.286.189.378.378.571a.094.094,0,0,1,.1.1c.189.1.286.1.378-.1s.189-.286.189-.475c.286-.664.664-1.235.949-1.9.1-.189.286-.378.378-.571.1-.1.1-.189.189-.189.571.571,1.138,1.046,1.71,1.613v.1a1.348,1.348,0,0,0-.189.664.426.426,0,0,0,0,.475,1.281,1.281,0,0,0,.286.378H51c.1,0,.1-.1.189-.1.571-.571,1.138-1.138,1.71-1.8l.189-.189a.177.177,0,0,0,0-.286c-.1-.1-.189-.189-.189-.286-.1-.1-.189-.1-.378-.1-.189.1-.475.189-.664.286-.1,0-.1,0-.189.1h-.1a2.5,2.5,0,0,1-.475-.571c-.286-.378-.664-.76-.949-1.138.1-.1.1-.189.189-.286A2.951,2.951,0,0,1,51,77.038a20.189,20.189,0,0,1,2-1.046c.1,0,.1-.1.189-.1.1-.1.189-.189.1-.286a.967.967,0,0,0-.378-.475c-.1-.1-.189-.1-.378-.1a.7.7,0,0,0-.378.1c-1.138.286-2.277.571-3.419.949h-.189a.494.494,0,0,1-.378-.189,4.309,4.309,0,0,0-.664-.664l-.76-.76a1.172,1.172,0,0,0-.76-.378H45.6c-.189.1-.189.286-.189.475-.1-.278-.011-.089.085.1Z" transform="translate(-10.463 -15.24)" fill="#fff" stroke="#fff" stroke-width="1"/>
    <path id="Path_45" data-name="Path 45" d="M34.166,37.2H28.848a.949.949,0,1,0,0,1.9h5.318a.949.949,0,1,0,0-1.9Z" transform="translate(-9.579 -13.372)" fill="#fff" stroke="#fff" stroke-width="1"/>
    <path id="Path_46" data-name="Path 46" d="M63.949,23.6a.9.9,0,0,0-.949.949v28.67a.949.949,0,1,0,1.9,0V24.551A1.021,1.021,0,0,0,63.949,23.6Z" transform="translate(-11.356 -12.684)" fill="#fff" stroke="#fff" stroke-width="1"/>
    <path id="Path_47" data-name="Path 47" d="M68.949,23.6a.9.9,0,0,0-.949.949v28.67a.949.949,0,1,0,1.9,0V24.551A1.021,1.021,0,0,0,68.949,23.6Z" transform="translate(-11.609 -12.684)" fill="#fff" stroke="#fff" stroke-width="1"/>
    <path id="Path_48" data-name="Path 48" d="M73.949,23.6a.9.9,0,0,0-.949.949v28.67a.949.949,0,1,0,1.9,0V24.551A.95.95,0,0,0,73.949,23.6Z" transform="translate(-11.862 -12.684)" fill="#fff" stroke="#fff" stroke-width="1"/>
    <path id="Path_49" data-name="Path 49" d="M78.949,23.6a.9.9,0,0,0-.949.949v28.67a.949.949,0,0,0,1.9,0V24.551A.95.95,0,0,0,78.949,23.6Z" transform="translate(-12.115 -12.684)" fill="#fff" stroke="#fff" stroke-width="1"/>
    <path id="Path_50" data-name="Path 50" d="M83.949,23.6a.9.9,0,0,0-.949.949v28.67a.949.949,0,0,0,1.9,0V24.551A.95.95,0,0,0,83.949,23.6Z" transform="translate(-12.368 -12.684)" fill="#fff" stroke="#fff" stroke-width="1"/>
    <path id="Path_51" data-name="Path 51" d="M86.257,60.046H80.847V58.432h.76a4.254,4.254,0,0,0,4.272-4.272V22.545a4.254,4.254,0,0,0-4.272-4.272H79.9v-1.8A4.42,4.42,0,0,0,75.529,12.1H65.657a4.42,4.42,0,0,0-4.369,4.369v1.8h-1.71a4.254,4.254,0,0,0-4.272,4.272V54.16a4.254,4.254,0,0,0,4.272,4.272h1.138v1.613h-9.3a3.781,3.781,0,0,0,.664-2.277l0-21.743A4.214,4.214,0,0,0,47.9,31.85H40.024V30.044a4.357,4.357,0,0,0-4.369-4.369H25.783a3.032,3.032,0,0,0-1.328.286,2.991,2.991,0,0,0-1.328-2.47l-4.083-2.659a.931.931,0,0,0-1.328.286L15.344,24.63a1.013,1.013,0,0,0-.1.76.884.884,0,0,0,.378.571l4.083,2.659a2.762,2.762,0,0,0,1.71.475h.189a3.512,3.512,0,0,0-.1,1.046v1.71h-7.12a4.214,4.214,0,0,0-4.176,4.176V57.765a4.582,4.582,0,0,0,.664,2.277l-1.328,0a.9.9,0,0,0-.949.949V66.12a.9.9,0,0,0,.949.949h3.987V84.536a.949.949,0,1,0,1.9,0V67.069H33.95V82.448a.9.9,0,0,0,.949.949h24.97a.9.9,0,0,0,.949-.949V67.069H78.856V84.536a.949.949,0,0,0,1.9,0V67.069h5.411a.9.9,0,0,0,.949-.949V60.995a.876.876,0,0,0-.857-.949ZM63.19,16.563a2.516,2.516,0,0,1,2.47-2.47h9.968a2.516,2.516,0,0,1,2.47,2.47v1.8H63.19ZM57.208,54.157V22.545a2.352,2.352,0,0,1,2.373-2.373H81.7a2.352,2.352,0,0,1,2.373,2.373V54.16A2.352,2.352,0,0,1,81.7,56.534l-22.121,0a2.409,2.409,0,0,1-2.373-2.373Zm5.411,4.272H78.947v1.613l-16.328,0ZM50.18,36.025V57.764A2.309,2.309,0,0,1,47.9,60.041H43.82V33.651H47.9a2.328,2.328,0,0,1,2.277,2.373ZM21.51,60.046h-1.9V33.652h1.9Zm1.9-26.394H38.124V60.046H23.409Zm16.614,0h1.9V60.046h-1.9ZM20.75,27.006l-3.226-2.184,1.328-1.9,3.226,2.184a1.106,1.106,0,0,1,.286,1.613.965.965,0,0,1-.76.475,2.852,2.852,0,0,1-.853-.189Zm2.659,3.037a2.455,2.455,0,0,1,2.47-2.47H35.75a2.455,2.455,0,0,1,2.47,2.47v1.71H23.408Zm-11.3,27.721V36.026a2.309,2.309,0,0,1,2.277-2.277h3.323V60.142H14.39a2.465,2.465,0,0,1-2.277-2.377ZM59.01,81.5H35.94V67.069H59.01Zm26.3-16.328H10.5V61.944H85.214v3.226Z" transform="translate(-8.602 -12.102)" fill="#fff" stroke="#fff" stroke-width="1"/>
  </g>
</svg>
