<svg xmlns="http://www.w3.org/2000/svg" width="66.105" height="74.253" viewBox="0 0 66.105 74.253">
  <path id="np_data_2884572_FFFFFF" d="M67.875,48.018V29.333A6.1,6.1,0,1,0,62,19.165c-.024-.015-16.154-9.33-16.181-9.345a6.105,6.105,0,1,0-11.747,0c-.018.009-16.184,9.342-16.2,9.351a6.1,6.1,0,1,0-5.848,10.169V48.011A6.1,6.1,0,1,0,17.873,58.18l8.116,4.675,8.086,4.675a6.1,6.1,0,1,0,11.744,0L62,58.186a6.1,6.1,0,1,0,5.875-10.169Zm-5.591,1.4L54.86,45.275l8.485-16.568a6.076,6.076,0,0,0,1.546.627V48.015a6.132,6.132,0,0,0-2.608,1.4Zm-45.337-.507a6.056,6.056,0,0,0-1.939-.886V29.33a5.92,5.92,0,0,0,1.522-.624L24.8,44.843ZM60.678,25.6c.03.078.06.152.092.23l-16.3,8.739a6.109,6.109,0,0,0-3.025-1.817V25.6ZM39.947,41.8a3.127,3.127,0,1,1,3.121-3.133A3.13,3.13,0,0,1,39.947,41.8Zm-1.492-9.053a6.074,6.074,0,0,0-2.611,1.4L23.005,25.6h15.45Zm-19.681-6.2c.027-.045.051-.09.075-.134L34.194,36.634a6.092,6.092,0,0,0-.185,3.437l-6.561,3.4Zm16.6,16.175a6.1,6.1,0,0,0,3.076,1.88l-.009,18.675a6.642,6.642,0,0,0-.737.239c-.639-1.25-7.812-15.259-8.9-17.389Zm6.794,20.791a6.118,6.118,0,0,0-.74-.239L41.441,44.6A6.111,6.111,0,0,0,44.4,42.859l6.5,3.622Zm3.673-23.258a6.091,6.091,0,0,0,.027-3.055l13.469-7.221L52.252,43.826ZM66.383,20.29a3.121,3.121,0,1,1-2.966,4.091,5.543,5.543,0,0,1-.137-.633,3.123,3.123,0,0,1,3.1-3.458ZM60.5,21.746a6.725,6.725,0,0,0-.176.868H41.439V14.077a6.17,6.17,0,0,0,2.891-1.671c.018.009,16.16,9.33,16.175,9.339ZM39.947,5.034a3.12,3.12,0,1,1-3.124,3.121,3.124,3.124,0,0,1,3.124-3.121ZM19.365,21.755l16.2-9.351a6.207,6.207,0,0,0,2.891,1.671v8.54H19.541a5.676,5.676,0,0,0-.176-.859Zm-9,1.659a3.12,3.12,0,1,1,3.44,3.109,2.825,2.825,0,0,1-.319.015,3.128,3.128,0,0,1-3.121-3.124Zm3.121,33.648a3.122,3.122,0,1,1,.316-6.227h0a3.122,3.122,0,0,1-.319,6.227ZM19.366,55.6a6.11,6.11,0,0,0-.409-4.368l7.2-3.727c10.27,20.057,8.277,16.166,8.734,17.055l-7.409-4.285ZM39.947,72.317a3.118,3.118,0,0,1-2.092-5.433,1.511,1.511,0,0,0,.161-.107,3.131,3.131,0,0,1,3.84,0,1.658,1.658,0,0,0,.215.14,3.116,3.116,0,0,1-2.124,5.4ZM60.5,55.605c-.018.009-15.51,8.957-15.524,8.966L53.5,47.937l7.122,3.971a6.167,6.167,0,0,0-.116,3.7Zm5.878,1.456A3.124,3.124,0,1,1,69.5,53.938a3.124,3.124,0,0,1-3.121,3.124Z" transform="translate(-6.882 -1.55)" fill="#fff" stroke="#fff" stroke-width="1"/>
</svg>
