<svg xmlns="http://www.w3.org/2000/svg" width="60.665" height="68.652" viewBox="0 0 60.665 68.652">
  <g id="np_export-goods_1595416_FFFFFF" transform="translate(0.523 0.569)">
    <path id="Path_18" data-name="Path 18" d="M4.43,13.565H7.04v6.525a1.3,1.3,0,0,0,1.3,1.3h10.44a1.3,1.3,0,0,0,1.3-1.3V13.565H22.7a1.305,1.305,0,0,0,.848-2.3l-9.135-7.83a1.305,1.305,0,0,0-1.7,0l-9.135,7.83a1.307,1.307,0,0,0,.848,2.3Zm9.135-7.415,5.611,4.805h-.391a1.3,1.3,0,0,0-1.3,1.3v6.525H9.651V12.26a1.3,1.3,0,0,0-1.3-1.3H7.954Z" transform="translate(-3.126 -3.125)" fill="#fff" stroke="#fff" stroke-width="1"/>
    <path id="Path_19" data-name="Path 19" d="M38.8,13.565h2.61v6.525a1.3,1.3,0,0,0,1.3,1.3h10.44a1.3,1.3,0,0,0,1.3-1.3V13.565h2.61a1.305,1.305,0,0,0,.848-2.3l-9.135-7.83a1.305,1.305,0,0,0-1.7,0l-9.135,7.83a1.307,1.307,0,0,0,.848,2.3ZM47.94,6.149l5.611,4.805H53.16a1.3,1.3,0,0,0-1.3,1.3v6.525h-7.83V12.26a1.3,1.3,0,0,0-1.3-1.3h-.391Z" transform="translate(-18.131 -3.125)" fill="#fff" stroke="#fff" stroke-width="1"/>
    <path id="Path_20" data-name="Path 20" d="M73.181,13.565h2.61v6.525a1.3,1.3,0,0,0,1.3,1.3h10.44a1.3,1.3,0,0,0,1.3-1.3V13.565h2.61a1.305,1.305,0,0,0,.848-2.3l-9.135-7.83a1.305,1.305,0,0,0-1.7,0l-9.135,7.83a1.307,1.307,0,0,0,.848,2.3Zm9.135-7.415,5.611,4.805h-.391a1.3,1.3,0,0,0-1.3,1.3v6.525H78.4V12.26a1.3,1.3,0,0,0-1.3-1.3H76.7Z" transform="translate(-33.137 -3.125)" fill="#fff" stroke="#fff" stroke-width="1"/>
    <path id="Path_21" data-name="Path 21" d="M61.749,51.477a1.1,1.1,0,0,0-.291-.751.963.963,0,0,0-.7-.31H47.839V29.186a1.1,1.1,0,0,0-.291-.751.963.963,0,0,0-.7-.31H19.023a1.029,1.029,0,0,0-.994,1.061V50.415H5.113a1.029,1.029,0,0,0-.994,1.061V72.706H3.125v2.123H62.743V72.706H61.75ZM42.87,52.538h7.949v4.246H42.87Zm-5.962-22.29v4.246H28.959V30.248Zm-16.891,0h6.956v5.307a1.1,1.1,0,0,0,.291.751.963.963,0,0,0,.7.31H37.9a.963.963,0,0,0,.7-.31,1.1,1.1,0,0,0,.291-.751V30.248h6.956V50.416H20.017Zm-.994,22.29H23v4.246H15.048V52.538Zm-12.917,0h6.956v5.307a1.1,1.1,0,0,0,.291.751.963.963,0,0,0,.7.31h9.936a.963.963,0,0,0,.7-.31,1.1,1.1,0,0,0,.291-.751V52.538h6.956V72.706H6.107ZM33.928,72.706V52.538h6.956v5.307a1.1,1.1,0,0,0,.291.751.963.963,0,0,0,.7.31h9.936a.963.963,0,0,0,.7-.31,1.1,1.1,0,0,0,.291-.751V52.538h6.956V72.706Z" transform="translate(-3.125 -7.246)" fill="#fff" stroke="#fff" stroke-width="1"/>
    <path id="Path_22" data-name="Path 22" d="M10.938,87.5h2.61v2.61h-2.61Z" transform="translate(-4.413 -27.747)" fill="#fff" stroke="#fff" stroke-width="1"/>
    <path id="Path_23" data-name="Path 23" d="M17.188,87.5H19.8v2.61h-2.61Z" transform="translate(-5.443 -27.747)" fill="#fff" stroke="#fff" stroke-width="1"/>
    <path id="Path_24" data-name="Path 24" d="M23.438,87.5h2.61v2.61h-2.61Z" transform="translate(-10.66 -27.747)" fill="#fff" stroke="#fff" stroke-width="1"/>
    <path id="Path_25" data-name="Path 25" d="M54.688,87.5H57.3v2.61h-2.61Z" transform="translate(-22.252 -27.747)" fill="#fff" stroke="#fff" stroke-width="1"/>
    <path id="Path_26" data-name="Path 26" d="M60.938,87.5h2.61v2.61h-2.61Z" transform="translate(-24.571 -27.747)" fill="#fff" stroke="#fff" stroke-width="1"/>
    <path id="Path_27" data-name="Path 27" d="M67.188,87.5H69.8v2.61h-2.61Z" transform="translate(-26.889 -27.747)" fill="#fff" stroke="#fff" stroke-width="1"/>
    <path id="Path_28" data-name="Path 28" d="M32.812,54.688h2.61V57.3h-2.61Z" transform="translate(-14.138 -17.72)" fill="#fff" stroke="#fff" stroke-width="1"/>
    <path id="Path_29" data-name="Path 29" d="M39.062,54.688h2.61V57.3h-2.61Z" transform="translate(-16.456 -17.72)" fill="#fff" stroke="#fff" stroke-width="1"/>
    <path id="Path_30" data-name="Path 30" d="M45.312,54.688h2.61V57.3h-2.61Z" transform="translate(-18.774 -17.72)" fill="#fff" stroke="#fff" stroke-width="1"/>
  </g>
</svg>
