<svg xmlns="http://www.w3.org/2000/svg" width="80.45" height="71.26" viewBox="0 0 80.45 71.26">
  <g id="np_statistics_1985553_000000" transform="translate(0.5 0.5)">
    <path id="Path_4011" data-name="Path 4011" d="M12.422,51.258A2.425,2.425,0,0,0,10,53.68V76.934a2.425,2.425,0,0,0,2.422,2.422H19.2a2.425,2.425,0,0,0,2.422-2.422V53.68A2.425,2.425,0,0,0,19.2,51.258Zm6.3,25.192H12.907V54.165H18.72Z" transform="translate(-9.031 -14.91)" fill="#fff" stroke="#fff" stroke-width="1"/>
    <path id="Path_4012" data-name="Path 4012" d="M29.422,33.242A2.425,2.425,0,0,0,27,35.664V76.37a2.425,2.425,0,0,0,2.422,2.422H36.2a2.425,2.425,0,0,0,2.422-2.422V35.664A2.425,2.425,0,0,0,36.2,33.242Zm6.3,42.647H29.907V36.149H35.72Z" transform="translate(-9.56 -14.35)" fill="#fff" stroke="#fff" stroke-width="1"/>
    <path id="Path_4013" data-name="Path 4013" d="M46.422,54.258A2.425,2.425,0,0,0,44,56.68V77.027a2.425,2.425,0,0,0,2.422,2.422H53.2a2.425,2.425,0,0,0,2.422-2.422V56.68A2.425,2.425,0,0,0,53.2,54.258Zm6.3,22.285H46.907V57.165H52.72Z" transform="translate(-10.088 -15.003)" fill="#fff" stroke="#fff" stroke-width="1"/>
    <path id="Path_4014" data-name="Path 4014" d="M63.422,41.258A2.425,2.425,0,0,0,61,43.68V76.623a2.425,2.425,0,0,0,2.422,2.422H70.2a2.425,2.425,0,0,0,2.422-2.422V43.68A2.425,2.425,0,0,0,70.2,41.258Zm6.3,34.881H63.907V44.165H69.72Z" transform="translate(-10.617 -14.599)" fill="#fff" stroke="#fff" stroke-width="1"/>
    <path id="Path_4015" data-name="Path 4015" d="M80.422,34.258A2.425,2.425,0,0,0,78,36.68V76.405a2.425,2.425,0,0,0,2.422,2.422H87.2a2.425,2.425,0,0,0,2.422-2.422V36.68A2.425,2.425,0,0,0,87.2,34.258Zm6.3,41.663H80.907V37.165H86.72Z" transform="translate(-11.146 -14.381)" fill="#fff" stroke="#fff" stroke-width="1"/>
    <path id="Path_4016" data-name="Path 4016" d="M87,83.258H10.453a1.453,1.453,0,0,0,0,2.907H87a1.453,1.453,0,0,0,0-2.907Z" transform="translate(-9 -15.905)" fill="#fff" stroke="#fff" stroke-width="1"/>
    <path id="Path_4017" data-name="Path 4017" d="M15.81,43.794a6.294,6.294,0,0,0,5.257-9.761L29.144,25.5a6.273,6.273,0,0,0,6.343-.042l8.429,10.916A6.3,6.3,0,1,0,54.68,38.291l6.688-5.511a6.292,6.292,0,0,0,10.155-4.973,6.582,6.582,0,0,0-.072-.908l5.091-2.263A6.3,6.3,0,1,0,75.4,21.021a6.581,6.581,0,0,0,.072.908l-5.091,2.263a6.292,6.292,0,0,0-10.832,6.324l-6.464,5.321a6.286,6.286,0,0,0-6.843-1.211l-8.652-11.2a6.3,6.3,0,1,0-10.563.083l-8.08,8.531A6.3,6.3,0,1,0,15.81,43.794ZM81.7,17.633A3.391,3.391,0,1,1,78.3,21.024,3.4,3.4,0,0,1,81.7,17.633ZM65.224,24.415a3.391,3.391,0,1,1-3.391,3.391A3.4,3.4,0,0,1,65.224,24.415ZM52.144,40.4a3.391,3.391,0,1,1-3.391-3.391A3.4,3.4,0,0,1,52.144,40.4ZM32.281,16.649A3.391,3.391,0,1,1,28.89,20.04,3.4,3.4,0,0,1,32.281,16.649ZM15.81,34.1A3.391,3.391,0,1,1,12.419,37.5,3.4,3.4,0,0,1,15.81,34.1Z" transform="translate(-9.016 -13.743)" fill="#fff" stroke="#fff" stroke-width="1"/>
  </g>
</svg>
