<svg xmlns="http://www.w3.org/2000/svg" width="69.467" height="69.488" viewBox="0 0 69.467 69.488">
  <g id="np_import-goods_1595411_FFFFFF" transform="translate(0.522 0.5)">
    <path id="Path_31" data-name="Path 31" d="M16.81,75H7.687a1.14,1.14,0,0,0-1.14,1.14v5.7H4.266a1.141,1.141,0,0,0-.741,2.007l7.983,6.842a1.141,1.141,0,0,0,1.483,0l7.983-6.842a1.143,1.143,0,0,0-.741-2.007H17.951v-5.7A1.139,1.139,0,0,0,16.811,75ZM12.249,88.323l-4.9-4.2h.342a1.139,1.139,0,0,0,1.14-1.14v-5.7H15.67v5.7a1.139,1.139,0,0,0,1.14,1.14h.342Z" transform="translate(-3.126 -22.541)" fill="#fff" stroke="#fff" stroke-width="1"/>
    <path id="Path_32" data-name="Path 32" d="M51.185,75H42.062a1.14,1.14,0,0,0-1.14,1.14v5.7H38.641A1.141,1.141,0,0,0,37.9,83.85l7.983,6.842a1.141,1.141,0,0,0,1.482,0l7.983-6.842a1.143,1.143,0,0,0-.741-2.007H52.326v-5.7A1.139,1.139,0,0,0,51.186,75ZM46.624,88.323l-4.9-4.2h.342a1.139,1.139,0,0,0,1.14-1.14v-5.7h6.842v5.7a1.139,1.139,0,0,0,1.14,1.14h.342Z" transform="translate(-12.411 -22.541)" fill="#fff" stroke="#fff" stroke-width="1"/>
    <path id="Path_33" data-name="Path 33" d="M85.56,75H76.437a1.14,1.14,0,0,0-1.14,1.14v5.7H73.016a1.141,1.141,0,0,0-.741,2.007l7.983,6.842a1.141,1.141,0,0,0,1.482,0l7.983-6.842a1.143,1.143,0,0,0-.741-2.007H86.7v-5.7A1.139,1.139,0,0,0,85.561,75ZM81,88.323l-4.9-4.2h.342a1.139,1.139,0,0,0,1.14-1.14v-5.7H84.42v5.7a1.139,1.139,0,0,0,1.14,1.14H85.9Z" transform="translate(-21.697 -22.541)" fill="#fff" stroke="#fff" stroke-width="1"/>
    <path id="Path_34" data-name="Path 34" d="M70.409,28.214a1.139,1.139,0,0,0-1.14-1.14H54.444V4.265a1.139,1.139,0,0,0-1.14-1.14H21.372a1.14,1.14,0,0,0-1.14,1.14V27.074H5.406a1.14,1.14,0,0,0-1.14,1.14V51.022H3.125V53.3H71.55V51.022H70.41Zm-21.668,1.14h9.123v4.562H48.741ZM41.9,5.406V9.968H32.775V5.406Zm-19.387,0H30.5v5.7a1.139,1.139,0,0,0,1.14,1.14h11.4a1.139,1.139,0,0,0,1.14-1.14v-5.7h7.983V27.074H22.513Zm-1.14,23.948h4.562v4.562H16.81V29.355Zm-14.825,0H14.53v5.7a1.139,1.139,0,0,0,1.14,1.14h11.4a1.139,1.139,0,0,0,1.14-1.14v-5.7H36.2V51.023H6.547ZM38.478,51.023V29.355h7.983v5.7A1.139,1.139,0,0,0,47.6,36.2h11.4a1.139,1.139,0,0,0,1.14-1.14v-5.7H68.13V51.023Z" transform="translate(-3.125 -3.125)" fill="#fff" stroke="#fff" stroke-width="1"/>
    <path id="Path_35" data-name="Path 35" d="M10.938,62.5h2.281v2.281H10.938Z" transform="translate(-5.236 -19.164)" fill="#fff" stroke="#fff" stroke-width="1"/>
    <path id="Path_36" data-name="Path 36" d="M17.188,62.5h2.281v2.281H17.188Z" transform="translate(-6.924 -19.164)" fill="#fff" stroke="#fff" stroke-width="1"/>
    <path id="Path_37" data-name="Path 37" d="M23.438,62.5h2.281v2.281H23.438Z" transform="translate(-8.613 -19.164)" fill="#fff" stroke="#fff" stroke-width="1"/>
    <path id="Path_38" data-name="Path 38" d="M54.688,62.5h2.281v2.281H54.688Z" transform="translate(-17.054 -19.164)" fill="#fff" stroke="#fff" stroke-width="1"/>
    <path id="Path_39" data-name="Path 39" d="M60.938,62.5h2.281v2.281H60.938Z" transform="translate(-18.743 -19.164)" fill="#fff" stroke="#fff" stroke-width="1"/>
    <path id="Path_40" data-name="Path 40" d="M67.188,62.5h2.281v2.281H67.188Z" transform="translate(-20.431 -19.164)" fill="#fff" stroke="#fff" stroke-width="1"/>
    <path id="Path_41" data-name="Path 41" d="M32.812,29.688h2.281v2.281H32.812Z" transform="translate(-11.145 -10.301)" fill="#fff" stroke="#fff" stroke-width="1"/>
    <path id="Path_42" data-name="Path 42" d="M39.062,29.688h2.281v2.281H39.062Z" transform="translate(-12.833 -10.301)" fill="#fff" stroke="#fff" stroke-width="1"/>
    <path id="Path_43" data-name="Path 43" d="M45.312,29.688h2.281v2.281H45.312Z" transform="translate(-14.522 -10.301)" fill="#fff" stroke="#fff" stroke-width="1"/>
  </g>
</svg>
