<svg xmlns="http://www.w3.org/2000/svg" width="35.032" height="68.648" viewBox="0 0 35.032 68.648">
  <path id="np_instant-booking_1190861_FFFFFF" d="M38.745,101.133l-.38-2.952c-.354-2.752,2.613-12.164,8.826-27.983l-7.034-.637a3.105,3.105,0,0,1-2.66-4.426L49.938,35.406a5.023,5.023,0,0,1,4.411-2.922l11.974.257A3.037,3.037,0,0,1,69.187,37L62.476,54.614l7.055.642a2.746,2.746,0,0,1,2.095,4.508C70.4,61.5,63.986,70.608,57.469,79.521,43.837,98.16,42.138,99.156,41.321,99.633Zm2.783-35.412,11.255,1.022-1.895,4.826c-3.733,9.5-5.853,15.6-7.055,19.5,2.244-2.834,5.556-7.188,10.444-13.874,5.381-7.353,10.685-14.833,13.047-18.181l-5.561-.519-4.852-.909,1.895-4.416,6.29-16.517-10.8-.231a1.259,1.259,0,0,0-.729.5Z" transform="translate(-37.216 -32.485)" fill="#fff"/>
</svg>
