<svg xmlns="http://www.w3.org/2000/svg" width="51.447" height="69.099" viewBox="0 0 51.447 69.099">
  <g id="np_passport_1659868_FFFFFF" transform="translate(0.75 0.75)">
    <path id="Path_1" data-name="Path 1" d="M60.239,6.6H19.81A1.479,1.479,0,0,0,18.329,8.08V72.722A1.479,1.479,0,0,0,19.81,74.2H60.239a8.046,8.046,0,0,0,8.037-8.037V14.64A8.046,8.046,0,0,0,60.239,6.6Zm5.077,59.564v0a5.079,5.079,0,0,1-5.077,5.081H21.3V9.558H60.239a5.079,5.079,0,0,1,5.077,5.081Z" transform="translate(-18.329 -6.602)" fill="#fff" stroke="#fff" stroke-width="1.5"/>
    <path id="Path_2" data-name="Path 2" d="M53.619,68.469H43.44a1.481,1.481,0,0,0-1.479,1.482v6.875a1.481,1.481,0,0,0,1.479,1.482H53.619A1.48,1.48,0,0,0,55.1,76.826V69.95a1.48,1.48,0,0,0-1.479-1.482Zm-1.5,6.878H44.921V71.453h7.195Z" transform="translate(-23.556 -20.286)" fill="#fff" stroke="#fff" stroke-width="1.5"/>
    <path id="Path_3" data-name="Path 3" d="M46.482,21.559A13.789,13.789,0,1,0,56.217,25.6a13.774,13.774,0,0,0-9.735-4.037Zm10.7,12.29h-4.04a23.136,23.136,0,0,0-1.8-8.168A10.819,10.819,0,0,1,57.182,33.849Zm-10.7,12.29c-1.372,0-3.38-3.669-3.69-9.346h7.384C49.868,42.471,47.851,46.14,46.482,46.14Zm-3.693-12.29c.3-5.662,2.336-9.346,3.69-9.346s3.38,3.669,3.69,9.346ZM41.63,25.681a23.069,23.069,0,0,0-1.8,8.168H35.789A10.819,10.819,0,0,1,41.63,25.681ZM35.789,36.81h4.043a23.08,23.08,0,0,0,1.8,8.168A10.819,10.819,0,0,1,35.789,36.81Zm15.576,8.168a23.069,23.069,0,0,0,1.8-8.168h4.043a10.825,10.825,0,0,1-5.865,8.168Z" transform="translate(-21.512 -9.91)" fill="#fff" stroke="#fff" stroke-width="1.5"/>
  </g>
</svg>
