<svg xmlns="http://www.w3.org/2000/svg" width="83.978" height="76.18" viewBox="0 0 83.978 76.18">
  <path id="np_import-export_2048649_FFFFFF" d="M83.982,42.733a1.748,1.748,0,0,0-.594-1.312l-3.166-2.782h0a38.49,38.49,0,0,0-76.456,0L.595,41.421a1.753,1.753,0,0,0,0,2.624L3.76,46.811h0a38.49,38.49,0,0,0,76.456,0l3.166-2.766h0a1.748,1.748,0,0,0,.594-1.312Zm-15.746,3.5H55.989v-7H68.235a1.747,1.747,0,0,0,1.749-1.749V34.335l9.589,8.4-9.589,8.4V47.982a1.747,1.747,0,0,0-1.749-1.749Zm2.851-15.589a2.781,2.781,0,0,0-4.6,2.1v2.992H55.76c-.157-2.431-.4-4.829-.718-7.155l0,0a40.175,40.175,0,0,0,14.362-7.522,34.691,34.691,0,0,1,6.686,14Zm-29.1,47.082c-3.5,0-7.138-7.175-9.1-18.249a42.023,42.023,0,0,1,18.194,0C49.129,70.553,45.491,77.726,41.991,77.726ZM54.483,60.369A36.757,36.757,0,0,1,67.1,67.035,34.987,34.987,0,0,1,48.569,77.113c2.7-3.779,4.691-9.885,5.915-16.744ZM35.413,77.1A34.793,34.793,0,0,1,16.886,67.036a36.82,36.82,0,0,1,12.6-6.666c1.24,6.86,3.235,12.965,5.931,16.727Zm6.577-22.117a47.413,47.413,0,0,0-9.622,1.033,96.854,96.854,0,0,1-.876-11.531h21a97.078,97.078,0,0,1-.84,11.547,46.17,46.17,0,0,0-9.658-1.05Zm0-47.239c3.5,0,7.138,7.175,9.1,18.249a43.266,43.266,0,0,1-9.1,1,43.267,43.267,0,0,1-9.1-1C34.852,14.913,38.491,7.74,41.991,7.74Zm6.577.613A34.984,34.984,0,0,1,67.1,18.431,36.751,36.751,0,0,1,54.482,25.1c-1.224-6.86-3.218-12.965-5.915-16.744ZM41.991,30.486a46.27,46.27,0,0,0,9.622-1.05,97.129,97.129,0,0,1,.876,11.547h-21a97.078,97.078,0,0,1,.84-11.547A46.17,46.17,0,0,0,41.991,30.486ZM35.413,8.369c-2.693,3.763-4.688,9.8-5.915,16.727a36.571,36.571,0,0,1-12.614-6.682A34.868,34.868,0,0,1,35.413,8.369ZM14.592,21.055a39.914,39.914,0,0,0,14.346,7.522c-.315,2.326-.561,4.724-.718,7.155l-10.724,0V32.743a2.781,2.781,0,0,0-4.6-2.1L7.925,35a34.978,34.978,0,0,1,6.666-13.945ZM4.409,42.732,14,34.334v3.149a1.747,1.747,0,0,0,1.749,1.749H27.993v7l-12.246,0A1.746,1.746,0,0,0,14,47.981V51.13ZM12.9,54.821a2.749,2.749,0,0,0,1.748.682A2.974,2.974,0,0,0,15.8,55.26a2.762,2.762,0,0,0,1.7-2.539V49.73H28.219c.157,2.414.4,4.813.718,7.138A40.27,40.27,0,0,0,14.592,64.41a34.963,34.963,0,0,1-6.682-14ZM69.409,64.41h0a40.168,40.168,0,0,0-14.362-7.522c.315-2.326.561-4.724.718-7.155l10.724,0v2.992a2.766,2.766,0,0,0,1.627,2.539,2.974,2.974,0,0,0,1.155.243,2.756,2.756,0,0,0,1.748-.682l5-4.393v0A34.623,34.623,0,0,1,69.406,64.41Z" transform="translate(-0.004 -4.635)" fill="#fff"/>
</svg>
