<svg xmlns="http://www.w3.org/2000/svg" width="76.585" height="76.001" viewBox="0 0 76.585 76.001">
  <g id="np_building_1406034_FFFFFF" transform="translate(0.5 0.5)">
    <path id="Path_52" data-name="Path 52" d="M76.727,60.508a18.613,18.613,0,0,0-4.482.59V27.255a1.112,1.112,0,0,0-1.179-1.179H63.99v-5.9A1.112,1.112,0,0,0,62.811,19h-28.3a1.112,1.112,0,0,0-1.179,1.179v5.9H26.255a1.112,1.112,0,0,0-1.179,1.179v56.6h-5.9a1.179,1.179,0,1,0,0,2.358H62.691A16.542,16.542,0,0,0,76.841,94a16.746,16.746,0,1,0-.116-33.492ZM35.688,21.358H61.631v4.717H35.688Zm8.255,62.5V74.424H54.556v9.434Zm12.972,0V73.245a1.112,1.112,0,0,0-1.179-1.179H42.764a1.112,1.112,0,0,0-1.179,1.179V83.858H27.434V28.434H69.886V61.452c0,.235,0,.355.12.47a16.764,16.764,0,0,0-10.023,15.33A15.446,15.446,0,0,0,61.4,83.858Zm19.812,7.785A14.385,14.385,0,1,1,91.112,77.257,14.444,14.444,0,0,1,76.727,91.642Z" transform="translate(-18 -19)" fill="#fff" stroke="#fff" stroke-width="1"/>
    <path id="Path_53" data-name="Path 53" d="M79.047,66.405H77.513l.355-1.059a1.2,1.2,0,0,0-2.243-.825L73.031,71.6l-2.124-6.956a1.135,1.135,0,0,0-1.059-.825,1.424,1.424,0,0,0-1.179.825l-2.713,7.31-2.713-7.31A1.2,1.2,0,1,0,61,65.466l.355,1.059H60.179a1.179,1.179,0,1,0,0,2.358H62.3L64.9,75.839a1.093,1.093,0,0,0,2.119,0l2.593-7.075,2.124,6.956a1.093,1.093,0,0,0,2.119,0l2.593-6.956h2.478A1.112,1.112,0,0,0,80.1,67.585c0-.709-.345-1.179-1.055-1.179Z" transform="translate(-10.652 -10.982)" fill="#fff" stroke="#fff" stroke-width="1"/>
    <path id="Path_54" data-name="Path 54" d="M48.179,36.358h7.075a1.179,1.179,0,1,0,0-2.358H48.179a1.179,1.179,0,0,0,0,2.358Z" transform="translate(-12.803 -16.312)" fill="#fff" stroke="#fff" stroke-width="1"/>
    <path id="Path_55" data-name="Path 55" d="M56.434,44.179A1.112,1.112,0,0,0,55.255,43H48.179a1.179,1.179,0,1,0,0,2.358h7.075A1.112,1.112,0,0,0,56.434,44.179Z" transform="translate(-12.803 -14.699)" fill="#fff" stroke="#fff" stroke-width="1"/>
    <path id="Path_56" data-name="Path 56" d="M41.255,34H34.179a1.179,1.179,0,0,0,0,2.358h7.075a1.179,1.179,0,0,0,0-2.358Z" transform="translate(-15.312 -16.312)" fill="#fff" stroke="#fff" stroke-width="1"/>
    <path id="Path_57" data-name="Path 57" d="M41.255,43H34.179a1.179,1.179,0,1,0,0,2.358h7.075a1.179,1.179,0,1,0,0-2.358Z" transform="translate(-15.312 -14.699)" fill="#fff" stroke="#fff" stroke-width="1"/>
  </g>
</svg>
