<svg xmlns="http://www.w3.org/2000/svg" width="95.987" height="58.716" viewBox="0 0 95.987 58.716">
  <g id="truck" transform="translate(0 -99.401)">
    <g id="Group_719" data-name="Group 719" transform="translate(1.406 100.807)">
      <rect id="Rectangle_31" data-name="Rectangle 31" width="51.585" height="7.376" transform="translate(5.436 36.687)" fill="#898890"/>
      <rect id="Rectangle_32" data-name="Rectangle 32" width="4.659" height="7.376" transform="translate(3.106 36.687)" fill="#ed4854"/>
      <rect id="Rectangle_33" data-name="Rectangle 33" width="8.444" height="8.347" transform="translate(52.799 36.687)" fill="#f7931e"/>
      <path id="Path_4018" data-name="Path 4018" d="M322.267,178.855v-8.347h3.106v-27.37a3.106,3.106,0,0,1,3.106-3.106h17.756a1.165,1.165,0,0,1,1.12.845l5.926,20.739a1.163,1.163,0,0,1,.045.32v16.919Z" transform="translate(-263.256 -133.821)" fill="#898890"/>
      <path id="Path_4019" data-name="Path 4019" d="M440.334,161.616l-5.926-20.739a1.165,1.165,0,0,0-1.12-.845h-3.882a1.165,1.165,0,0,1,1.12.845l5.926,20.739a1.161,1.161,0,0,1,.045.32v16.919h3.882V161.936A1.17,1.17,0,0,0,440.334,161.616Z" transform="translate(-350.31 -133.821)" fill="#74747a"/>
      <path id="Path_4020" data-name="Path 4020" d="M7.5,343.879V340a1.165,1.165,0,0,1,1.165-1.165H99.511A1.165,1.165,0,0,1,100.675,340v3.882a1.165,1.165,0,0,1-1.165,1.165H8.666A1.165,1.165,0,0,1,7.5,343.879Z" transform="translate(-7.501 -295.351)" fill="#c6c5ca"/>
      <path id="Path_4021" data-name="Path 4021" d="M481.461,338.831h-3.882A1.164,1.164,0,0,1,478.743,340v3.882a1.164,1.164,0,0,1-1.164,1.165h3.882a1.165,1.165,0,0,0,1.165-1.165V340A1.165,1.165,0,0,0,481.461,338.831Z" transform="translate(-389.451 -295.35)" fill="#aaa9ad"/>
      <path id="Path_4022" data-name="Path 4022" d="M467.743,289.129h-3.494a1.164,1.164,0,0,0-1.165,1.165v2.33a1.165,1.165,0,0,0,1.165,1.165h3.494Z" transform="translate(-377.674 -254.966)" fill="#f7931e"/>
      <path id="Path_4023" data-name="Path 4023" d="M406.522,181.963h-4.565a1.165,1.165,0,0,1-.824-.341l-3.977-3.976a1.165,1.165,0,0,1-.341-.824V166.046a1.165,1.165,0,0,1,1.165-1.165h5.71a1.165,1.165,0,0,1,1.124.858l2.831,10.379a1.171,1.171,0,0,1,.041.307V180.8A1.164,1.164,0,0,1,406.522,181.963Z" transform="translate(-323.829 -154.011)" fill="#dcffff"/>
      <path id="Path_4024" data-name="Path 4024" d="M420.618,176.12l-2.831-10.379a1.165,1.165,0,0,0-1.124-.858h-3.882a1.164,1.164,0,0,1,1.124.858l2.831,10.379a1.165,1.165,0,0,1,.041.307V180.8a1.165,1.165,0,0,1-1.165,1.165h3.882a1.165,1.165,0,0,0,1.165-1.165v-4.373A1.167,1.167,0,0,0,420.618,176.12Z" transform="translate(-336.801 -154.013)" fill="#afeafa"/>
      <path id="Path_4025" data-name="Path 4025" d="M227.435,364.136H215.709a1.125,1.125,0,0,1-1.125-1.125v-3.38a1.125,1.125,0,0,1,1.125-1.125h11.727a1.125,1.125,0,0,1,1.125,1.125v3.38A1.125,1.125,0,0,1,227.435,364.136Z" transform="translate(-175.761 -311.338)" fill="#f7931e"/>
      <path id="Path_4026" data-name="Path 4026" d="M266.1,358.507h-3.882a1.165,1.165,0,0,1,1.165,1.165v3.3a1.165,1.165,0,0,1-1.165,1.165H266.1a1.165,1.165,0,0,0,1.165-1.165v-3.3A1.165,1.165,0,0,0,266.1,358.507Z" transform="translate(-214.462 -311.338)" fill="#f7831e"/>
      <path id="Path_4027" data-name="Path 4027" d="M68.452,106.9H8.665A1.165,1.165,0,0,0,7.5,108.067v34.94a1.165,1.165,0,0,0,1.165,1.165H68.452a1.165,1.165,0,0,0,1.165-1.165v-34.94A1.164,1.164,0,0,0,68.452,106.9Z" transform="translate(-7.5 -106.902)" fill="#29abe2"/>
      <path id="Path_4028" data-name="Path 4028" d="M13.712,111.948V106.9H8.665A1.165,1.165,0,0,0,7.5,108.067v5.046h5.047A1.165,1.165,0,0,0,13.712,111.948Z" transform="translate(-7.5 -106.902)" fill="#f7931e"/>
      <path id="Path_4029" data-name="Path 4029" d="M12.547,272.567H7.5v5.047a1.165,1.165,0,0,0,1.165,1.165h5.047v-5.047A1.165,1.165,0,0,0,12.547,272.567Z" transform="translate(-7.5 -241.509)" fill="#f7931e"/>
      <path id="Path_4030" data-name="Path 4030" d="M316.96,108.067A1.165,1.165,0,0,0,315.8,106.9h-3.882a1.165,1.165,0,0,1,1.165,1.165v36.1H315.8a1.165,1.165,0,0,0,1.165-1.165Z" transform="translate(-254.843 -106.902)" fill="#2692d1"/>
      <path id="Path_4031" data-name="Path 4031" d="M311.911,108.067a1.165,1.165,0,0,0-1.165-1.165H305.7v5.046a1.165,1.165,0,0,0,1.165,1.165h5.047Z" transform="translate(-249.794 -106.902)" fill="#f7931e"/>
      <path id="Path_4032" data-name="Path 4032" d="M313.077,108.067v5.046h3.882v-5.046a1.165,1.165,0,0,0-1.046-1.159c-.039,0-.079-.006-.119-.006h-3.882A1.165,1.165,0,0,1,313.077,108.067Z" transform="translate(-254.843 -106.902)" fill="#f7831e"/>
      <path id="Path_4033" data-name="Path 4033" d="M305.7,278.78h5.047a1.164,1.164,0,0,0,1.165-1.165v-5.047h-5.047a1.165,1.165,0,0,0-1.165,1.165Z" transform="translate(-249.796 -241.511)" fill="#f7931e"/>
      <path id="Path_4034" data-name="Path 4034" d="M322.008,272.568h-3.882v6.211h2.718a1.165,1.165,0,0,0,1.165-1.165Z" transform="translate(-259.892 -241.51)" fill="#f7831e"/>
      <path id="Path_4035" data-name="Path 4035" d="M467.615,289.129a1.157,1.157,0,0,0-.388.068v4.524a1.162,1.162,0,0,0,.388.068h3.494v-4.659h-3.494Z" transform="translate(-381.04 -254.966)" fill="#f7831e"/>
      <circle id="Ellipse_68" data-name="Ellipse 68" cx="9.317" cy="9.317" r="9.317" transform="translate(12.424 37.269)" fill="#57565c"/>
      <path id="Path_4036" data-name="Path 4036" d="M115.056,305.7a9.347,9.347,0,0,0-1.941.2,9.318,9.318,0,0,1,0,18.227,9.318,9.318,0,1,0,1.941-18.431Z" transform="translate(-93.315 -268.43)" fill="#3e3d42"/>
      <circle id="Ellipse_69" data-name="Ellipse 69" cx="4.659" cy="4.659" r="4.659" transform="translate(17.083 41.928)" fill="#c6c5ca"/>
      <circle id="Ellipse_70" data-name="Ellipse 70" cx="9.317" cy="9.317" r="9.317" transform="translate(62.117 37.269)" fill="#57565c"/>
      <path id="Path_4037" data-name="Path 4037" d="M380.121,305.7a9.347,9.347,0,0,0-1.941.2,9.318,9.318,0,0,1,0,18.227,9.318,9.318,0,1,0,1.941-18.431Z" transform="translate(-308.687 -268.43)" fill="#3e3d42"/>
      <circle id="Ellipse_71" data-name="Ellipse 71" cx="4.659" cy="4.659" r="4.659" transform="translate(66.775 41.928)" fill="#c6c5ca"/>
    </g>
    <g id="Group_720" data-name="Group 720" transform="translate(0 99.401)">
      <path id="Path_4038" data-name="Path 4038" d="M97.185,323.05a6.065,6.065,0,1,0,6.065,6.065A6.072,6.072,0,0,0,97.185,323.05Zm0,9.317a3.252,3.252,0,1,1,3.252-3.252A3.256,3.256,0,0,1,97.185,332.367Z" transform="translate(-74.037 -281.122)"/>
      <path id="Path_4039" data-name="Path 4039" d="M117.375,343.752a1.406,1.406,0,0,0-1.406,1.406v1.553a1.406,1.406,0,1,0,2.812,0v-1.553A1.406,1.406,0,0,0,117.375,343.752Z" transform="translate(-94.228 -297.943)"/>
      <path id="Path_4040" data-name="Path 4040" d="M362.25,323.05a6.065,6.065,0,1,0,6.065,6.065A6.072,6.072,0,0,0,362.25,323.05Zm0,9.317a3.252,3.252,0,1,1,3.252-3.252A3.256,3.256,0,0,1,362.25,332.367Z" transform="translate(-289.41 -281.122)"/>
      <path id="Path_4041" data-name="Path 4041" d="M382.44,343.752a1.406,1.406,0,0,0-1.406,1.406v1.553a1.406,1.406,0,1,0,2.812,0v-1.553A1.406,1.406,0,0,0,382.44,343.752Z" transform="translate(-309.6 -297.943)"/>
      <path id="Path_4042" data-name="Path 4042" d="M94.581,142.882h-1.7V128.759a1.4,1.4,0,0,0-.054-.386l-6.212-21.741a1.406,1.406,0,0,0-1.352-1.02H66.629a4.489,4.489,0,0,0-1.7.334v-5.138A1.406,1.406,0,0,0,63.522,99.4H27.806a1.406,1.406,0,0,0,0,2.812H55.9v4.8a1.406,1.406,0,0,0,1.406,1.406h4.806v22.035H57.311a1.406,1.406,0,0,0-1.406,1.406v4.806H9.024v-4.806a1.406,1.406,0,0,0-1.406-1.406H2.812V108.424H7.618a1.406,1.406,0,0,0,1.406-1.406v-4.8H22.172a1.406,1.406,0,0,0,0-2.812H1.406A1.406,1.406,0,0,0,0,100.807v37.269a1.406,1.406,0,0,0,1.406,1.406h1.7v3.4h-1.7A1.406,1.406,0,0,0,0,144.288V150.5a1.406,1.406,0,0,0,1.406,1.406H13.422a10.718,10.718,0,0,0,19.449,0h5.951v1.7a1.406,1.406,0,0,0,1.406,1.406H54.2a1.406,1.406,0,0,0,1.406-1.406v-1.7h7.5a10.718,10.718,0,0,0,19.45,0H94.581a1.406,1.406,0,0,0,1.406-1.406v-6.211A1.406,1.406,0,0,0,94.581,142.882Zm-4.512-4.659H88.222v-1.847h1.847Zm-23.441-29.8H84.2l5.866,20.532v4.608H86.816a1.406,1.406,0,0,0-1.406,1.406v4.659a1.406,1.406,0,0,0,1.406,1.406h3.253v1.847h-7.5a10.718,10.718,0,0,0-19.449,0H61.823v-3.4h1.7a1.406,1.406,0,0,0,1.406-1.406V110.125A1.7,1.7,0,0,1,66.629,108.424ZM55.611,142.881v-3.4h3.4v3.4h-3.4Zm3.105-37.269v-3.4h3.4v3.4Zm0,27.659h3.4v3.4h-3.4ZM52.8,139.483v3.4H32.872a10.777,10.777,0,0,0-2.494-3.4Zm-39.377,3.4H10.577v-3.4h5.339A10.781,10.781,0,0,0,13.423,142.882ZM6.212,102.213v3.4h-3.4v-3.4Zm-3.4,31.058h3.4v3.4h-3.4Zm3.106,6.212H7.765v3.4H5.919Zm-3.106,9.61v-3.4H12.56a10.68,10.68,0,0,0,0,3.4Zm20.335,6.212a7.911,7.911,0,0,1-.007-15.822h.014a7.911,7.911,0,0,1-.007,15.822ZM52.8,152.2H41.635v-2.817H52.8Zm2.812-3.107v-1.117a1.406,1.406,0,0,0-1.406-1.406H40.229a1.406,1.406,0,0,0-1.406,1.406v1.117H33.734a10.678,10.678,0,0,0,0-3.4H62.253a10.678,10.678,0,0,0,0,3.4Zm17.229,6.212a7.911,7.911,0,1,1,7.911-7.911A7.92,7.92,0,0,1,72.84,155.305Zm20.335-6.212H83.428a10.68,10.68,0,0,0,0-3.4h9.747Z" transform="translate(0 -99.401)"/>
      <path id="Path_4043" data-name="Path 4043" d="M394.388,176.865a1.406,1.406,0,0,0,.994.412h6.212A1.406,1.406,0,0,0,403,175.871v-5.694a1.409,1.409,0,0,0-.049-.37l-3.106-11.388a1.406,1.406,0,0,0-1.357-1.036h-7.765a1.406,1.406,0,0,0-1.406,1.406v12.423a1.406,1.406,0,0,0,.412.994Zm-2.259-16.67h5.285l2.774,10.17v4.1h-4.223l-3.835-3.835V160.2Z" transform="translate(-316.33 -146.513)"/>
      <path id="Path_4044" data-name="Path 4044" d="M353.448,168.477h3.106a1.406,1.406,0,0,0,0-2.812h-3.106a1.406,1.406,0,1,0,0,2.812Z" transform="translate(-286.043 -153.242)"/>
      <path id="Path_4045" data-name="Path 4045" d="M353.448,193.328h3.106a1.406,1.406,0,0,0,0-2.812h-3.106a1.406,1.406,0,0,0,0,2.812Z" transform="translate(-286.043 -173.434)"/>
      <path id="Path_4046" data-name="Path 4046" d="M353.448,218.179h3.106a1.406,1.406,0,0,0,0-2.812h-3.106a1.406,1.406,0,1,0,0,2.812Z" transform="translate(-286.043 -193.626)"/>
      <path id="Path_4047" data-name="Path 4047" d="M356.185,266.471a1.406,1.406,0,0,0,1.406,1.406h4.658a1.406,1.406,0,1,0,0-2.812h-4.658A1.406,1.406,0,0,0,356.185,266.471Z" transform="translate(-289.41 -234.007)"/>
      <path id="Path_4048" data-name="Path 4048" d="M82.833,167.073V179.5a1.406,1.406,0,0,0,2.812,0V167.073a1.406,1.406,0,0,0-2.812,0Z" transform="translate(-67.304 -153.244)"/>
      <path id="Path_4049" data-name="Path 4049" d="M168.48,179.5V167.074a1.406,1.406,0,0,0-2.812,0V179.5a1.406,1.406,0,1,0,2.812,0Z" transform="translate(-134.61 -153.245)"/>
      <path id="Path_4050" data-name="Path 4050" d="M251.313,179.5V167.074a1.406,1.406,0,1,0-2.812,0V179.5a1.406,1.406,0,1,0,2.812,0Z" transform="translate(-201.913 -153.245)"/>
    </g>
  </g>
</svg>
