<svg xmlns="http://www.w3.org/2000/svg" width="71.783" height="68.45" viewBox="0 0 71.783 68.45">
  <path id="np_survey_1603728_FFFFFF" d="M50.8,11.872H47.26l0-3.54H18.949v3.54H15.412a7.078,7.078,0,0,0-7.08,7.077V68.494a7.077,7.077,0,0,0,7.077,7.077H50.8a7.077,7.077,0,0,0,7.077-7.077l0-49.545a7.078,7.078,0,0,0-7.08-7.077Zm-28.311,0H43.723v3.54H22.489ZM54.34,68.5a3.546,3.546,0,0,1-3.54,3.54l-35.388,0a3.546,3.546,0,0,1-3.54-3.54V18.949a3.546,3.546,0,0,1,3.54-3.54h3.54v3.54H47.264V15.412H50.8a3.546,3.546,0,0,1,3.54,3.54ZM18.949,26.029H47.26v3.54l-28.311,0Zm0,10.617H47.26v3.54l-28.311,0Zm0,10.617H47.26V50.8l-28.311,0Zm0,10.617H33.106v3.54l-14.157,0ZM75.575,11.872H68.5a3.541,3.541,0,0,0-3.54,3.54V68.5l7.077,7.077L79.111,68.5l0-42.468V15.412a3.541,3.541,0,0,0-3.54-3.54ZM68.5,15.412h7.077v7.077H68.5Zm7.077,51.619-3.54,3.54-3.54-3.54,0-41h7.077Z" transform="translate(-7.832 -7.832)" fill="#fff" stroke="#fff" stroke-width="1"/>
</svg>
