<svg xmlns="http://www.w3.org/2000/svg" width="80.849" height="73.26" viewBox="0 0 80.849 73.26">
  <path id="np_container_2300444_FFFFFF" d="M33.505,13a.954.954,0,1,0,.178,1.9h9.494v6.2L24.546,35.993a.948.948,0,0,0-.356.742v2.848h-3.8a.715.715,0,0,0-.178,0,.949.949,0,0,0-.771.949v6.646H9.949a.715.715,0,0,0-.178,0A.949.949,0,0,0,9,48.127V82.3a.951.951,0,0,0,.949.949H85.9a.951.951,0,0,0,.949-.949V48.127a.951.951,0,0,0-.949-.949H76.405V40.532a.951.951,0,0,0-.949-.949h-3.8V36.735a.948.948,0,0,0-.356-.742L52.671,21.1V14.9h9.494a.949.949,0,1,0,0-1.9H33.683a.715.715,0,0,0-.178,0Zm11.571,1.9h5.7v5.7h-5.7Zm-.623,7.6H51.4L69.76,37.179v2.4h-3.8a.715.715,0,0,0-.178,0,.949.949,0,0,0-.771.949v6.646H30.836V40.532a.951.951,0,0,0-.949-.949h-3.8v-2.4ZM21.342,41.481h7.6v5.7h-7.6Zm45.57,0h7.6v5.7h-7.6ZM10.9,49.076H84.95V81.355H10.9Zm12.223,7.565a.95.95,0,0,0-.831.979v15.19a.949.949,0,1,0,1.9,0V57.62a.949.949,0,0,0-1.068-.979Zm12.342,0a.95.95,0,0,0-.831.979v15.19a.949.949,0,1,0,1.9,0V57.62a.949.949,0,0,0-1.068-.979Zm12.342,0a.95.95,0,0,0-.831.979v15.19a.949.949,0,1,0,1.9,0V57.62a.949.949,0,0,0-1.068-.979Zm12.342,0a.95.95,0,0,0-.831.979v15.19a.949.949,0,1,0,1.9,0V57.62a.949.949,0,0,0-1.068-.979Zm12.342,0a.95.95,0,0,0-.831.979v15.19a.949.949,0,1,0,1.9,0V57.62a.949.949,0,0,0-1.068-.979Z" transform="translate(-7.499 -11.494)" fill="#fff" stroke="#fff" stroke-width="3"/>
</svg>
