<svg xmlns="http://www.w3.org/2000/svg" width="76.404" height="87.762" viewBox="0 0 76.404 87.762">
  <g id="container" transform="translate(-33.088)">
    <g id="Group_686" data-name="Group 686" transform="translate(34.376 1.302)">
      <path id="Path_3994" data-name="Path 3994" d="M243.772,195.167h-3.62a1.03,1.03,0,0,1-1.03-1.03v-3.62a1.03,1.03,0,0,1,1.03-1.03h3.62a1.03,1.03,0,0,1,1.03,1.03v3.62A1.03,1.03,0,0,1,243.772,195.167Z" transform="translate(-205.047 -158.268)" fill="#f7931e"/>
      <rect id="Rectangle_30" data-name="Rectangle 30" width="5.679" height="10.648" transform="translate(34.075 6.374)" fill="#57565c"/>
      <path id="Path_3995" data-name="Path 3995" d="M421.108,247.58v-7.395a1.065,1.065,0,0,1,1.065-1.065h3.55a1.065,1.065,0,0,1,1.065,1.065v7.395Z" transform="translate(-355.798 -199.381)" fill="#2692d1"/>
      <path id="Path_3996" data-name="Path 3996" d="M57.132,247.58v-7.395A1.065,1.065,0,0,1,58.2,239.12h3.55a1.065,1.065,0,0,1,1.065,1.065v7.395Z" transform="translate(-54.293 -199.381)" fill="#2692d1"/>
      <path id="Path_3997" data-name="Path 3997" d="M113.39,272.211H41.621a1.03,1.03,0,0,0-1.03,1.03v37.694a1.03,1.03,0,0,0,1.03,1.03H113.39a1.03,1.03,0,0,0,1.03-1.03V273.241A1.03,1.03,0,0,0,113.39,272.211Z" transform="translate(-40.591 -226.792)" fill="#29abe2"/>
      <path id="Path_3998" data-name="Path 3998" d="M447.407,272.211h-3.549a1.065,1.065,0,0,1,1.065,1.065V310.9a1.065,1.065,0,0,1-1.065,1.065h3.549a1.065,1.065,0,0,0,1.065-1.065V273.276A1.065,1.065,0,0,0,447.407,272.211Z" transform="translate(-374.643 -226.792)" fill="#2692d1"/>
      <g id="Group_685" data-name="Group 685" transform="translate(19.847)">
        <path id="Path_3999" data-name="Path 3999" d="M190.362,7.587v5.324a1.065,1.065,0,0,1-1.065,1.065h-32a1.065,1.065,0,0,1-1.065-1.065V7.587Z" transform="translate(-156.228 -7.587)" fill="#898890"/>
        <path id="Path_4000" data-name="Path 4000" d="M331.769,13.976H328.22a1.065,1.065,0,0,0,1.065-1.065V7.587h3.549v5.324A1.065,1.065,0,0,1,331.769,13.976Z" transform="translate(-298.7 -7.587)" fill="#74747a"/>
      </g>
      <path id="Path_4001" data-name="Path 4001" d="M197.588,33.468V35.6a1.065,1.065,0,0,0,1.065,1.065h17.806a1.065,1.065,0,0,0,1.065-1.065v-2.13a1.065,1.065,0,0,0-1.065-1.065H198.653A1.065,1.065,0,0,0,197.588,33.468Z" transform="translate(-170.642 -28.144)" fill="#f7931e"/>
      <path id="Path_4002" data-name="Path 4002" d="M290.407,36.663h-3.549a1.065,1.065,0,0,0,1.065-1.065v-2.13a1.065,1.065,0,0,0-1.065-1.065h3.549a1.065,1.065,0,0,1,1.065,1.065V35.6A1.065,1.065,0,0,1,290.407,36.663Z" transform="translate(-244.59 -28.144)" fill="#f7831e"/>
      <path id="Path_4003" data-name="Path 4003" d="M99.927,454.789l-.831,1.662a1.065,1.065,0,0,1-.952.589H56.866a1.065,1.065,0,0,1-.952-.589l-.831-1.662a1.065,1.065,0,0,0-.952-.589H40.591v7.454a1.065,1.065,0,0,0,1.065,1.065h71.7a1.065,1.065,0,0,0,1.065-1.065V454.2H100.88A1.065,1.065,0,0,0,99.927,454.789Z" transform="translate(-40.591 -377.546)" fill="#898890"/>
      <path id="Path_4004" data-name="Path 4004" d="M444.923,461.653a1.065,1.065,0,0,1-1.065,1.065h3.549a1.065,1.065,0,0,0,1.065-1.065V454.2h-3.549Z" transform="translate(-374.643 -377.545)" fill="#74747a"/>
    </g>
    <g id="Group_687" data-name="Group 687" transform="translate(33.088)">
      <path id="Path_4005" data-name="Path 4005" d="M108.2,45.434h-1.552V41.041a1.287,1.287,0,0,0-1.287-1.287H99.686A1.287,1.287,0,0,0,98.4,41.041v.7l-22.981-4.6V32.523a1.287,1.287,0,0,0-1.287-1.287H72.577V19.612H75.55a1.287,1.287,0,0,0,0-2.575h-.133V11.094h5.812a1.287,1.287,0,0,0,1.287-1.287V8.964h5.812a1.287,1.287,0,0,0,1.287-1.287v-5.1h5.812a1.287,1.287,0,0,0,0-2.575H47.154a1.287,1.287,0,1,0,0,2.575h5.812v5.1a1.287,1.287,0,0,0,1.287,1.287h5.812v.843a1.287,1.287,0,0,0,1.287,1.287h5.812v5.944h-.132a1.287,1.287,0,0,0,0,2.575H70V31.235H68.451a1.287,1.287,0,0,0-1.287,1.287v4.624l-22.982,4.6v-.7a1.287,1.287,0,0,0-1.287-1.287H37.215a1.287,1.287,0,0,0-1.287,1.287v4.392H34.376a1.287,1.287,0,0,0-1.287,1.287V77.95s0,0,0,.007,0,0,0,.007v8.512a1.287,1.287,0,0,0,1.287,1.287H108.2a1.287,1.287,0,0,0,1.287-1.287V46.721A1.287,1.287,0,0,0,108.2,45.434ZM62.639,6.834h9.634a1.287,1.287,0,0,0,0-2.575H61.351a1.287,1.287,0,0,0-1.287,1.287v.843H55.54V2.575h31.5V6.389H82.516V5.547a1.287,1.287,0,0,0-1.287-1.287h-3.8a1.287,1.287,0,0,0,0,2.575h2.511V8.519h-17.3Zm7.1,4.26h3.1v5.944h-3.1Zm34.34,31.235v3.1h-3.1V42.328h3.1ZM69.738,33.81h3.1v3.1h-3.1Zm-1.16,5.679H74l24.4,4.879v1.065H44.181V44.368ZM38.5,42.329h3.1v3.1H38.5Zm68.415,5.679V76.669H94.007a1.287,1.287,0,0,0-1.151.712l-1.064,2.128h-41l-1.064-2.128a1.287,1.287,0,0,0-1.151-.712H35.663V48.008ZM35.663,85.187V79.243H47.778l1.064,2.128a1.287,1.287,0,0,0,1.151.712H92.587a1.287,1.287,0,0,0,1.151-.712L94.8,79.243h12.115v5.944Z" transform="translate(-33.088)"/>
      <path id="Path_4006" data-name="Path 4006" d="M84.009,320.249a1.287,1.287,0,0,0,1.287-1.287V299.085a1.287,1.287,0,1,0-2.575,0v19.877A1.287,1.287,0,0,0,84.009,320.249Z" transform="translate(-74.203 -246.686)"/>
      <path id="Path_4007" data-name="Path 4007" d="M249.454,320.249a1.287,1.287,0,0,0,1.287-1.287V299.085a1.287,1.287,0,1,0-2.575,0v19.877A1.287,1.287,0,0,0,249.454,320.249Z" transform="translate(-211.252 -246.686)"/>
      <path id="Path_4008" data-name="Path 4008" d="M166.73,320.249a1.287,1.287,0,0,0,1.287-1.287V299.085a1.287,1.287,0,1,0-2.575,0v19.877A1.287,1.287,0,0,0,166.73,320.249Z" transform="translate(-142.726 -246.686)"/>
      <path id="Path_4009" data-name="Path 4009" d="M414.9,320.249a1.287,1.287,0,0,0,1.287-1.287V299.085a1.287,1.287,0,1,0-2.575,0v19.877A1.287,1.287,0,0,0,414.9,320.249Z" transform="translate(-348.299 -246.686)"/>
      <path id="Path_4010" data-name="Path 4010" d="M332.172,320.249a1.287,1.287,0,0,0,1.287-1.287V299.085a1.287,1.287,0,1,0-2.574,0v19.877A1.287,1.287,0,0,0,332.172,320.249Z" transform="translate(-279.773 -246.686)"/>
    </g>
  </g>
</svg>
