<?xml version="1.0" encoding="iso-8859-1"?>
<!-- Generator: Adobe Illustrator 21.0.0, SVG Export Plug-In . SVG Version: 6.00 Build 0)  -->
<svg xmlns="http://www.w3.org/2000/svg" xmlns:xlink="http://www.w3.org/1999/xlink" version="1.1" id="Capa_1" x="0px" y="0px" viewBox="0 0 511.486 511.486" style="enable-background:new 0 0 511.486 511.486;" xml:space="preserve" width="512" height="512">
<g>
	<rect x="363.317" y="51.631" style="fill:#898890;" width="82.746" height="132.744"/>
	<rect x="425.376" y="51.631" style="fill:#74747A;" width="20.687" height="132.744"/>
	<path style="fill:#F7931E;" d="M487.437,472.952v-24.821c0-3.427-2.779-6.206-6.206-6.206H30.258c-3.427,0-6.206,2.779-6.206,6.206   l0,24.825c0,3.428,2.779,6.206,6.206,6.206l450.973-0.005C484.659,479.158,487.437,476.379,487.437,472.952z"/>
	<path style="fill:#F7831E;" d="M481.231,441.925h-20.6c3.428,0,6.206,2.779,6.206,6.206v24.821c0,3.428-2.778,6.206-6.206,6.206   h20.6c3.427,0,6.206-2.778,6.206-6.206v-24.821C487.437,444.703,484.659,441.925,481.231,441.925z"/>
	<polygon style="fill:#29ABE2;" points="454.338,479.162 454.338,197.821 388.141,151.008 255.743,115.244 123.347,148.17    57.15,197.821 57.15,479.162  "/>
	<polygon style="fill:#2692D1;" points="388.141,151.008 255.743,115.244 244.905,117.939 367.325,151.008 433.523,197.821    433.523,479.162 454.338,479.162 454.338,197.821  "/>
	<path style="fill:#F7931E;" d="M254.238,131.996l-129.514,32.379c-0.907,0.227-1.75,0.655-2.468,1.253l-93.504,77.922   c-2.607,2.173-6.476,1.848-8.685-0.729l-8.471-9.882c-2.253-2.628-1.92-6.591,0.739-8.807l109.922-91.604   c0.718-0.598,1.556-1.025,2.462-1.252c13.095-3.274,115.838-28.96,129.522-32.381c0.988-0.247,2.021-0.247,3.009,0l129.514,32.379   c0.906,0.227,1.75,0.655,2.468,1.253l109.921,91.604c2.659,2.216,2.991,6.179,0.739,8.807l-8.471,9.882   c-2.209,2.577-6.078,2.901-8.685,0.729l-93.504-77.922c-0.718-0.598-1.556-1.025-2.462-1.252   c-13.095-3.274-115.838-28.96-129.522-32.38C256.259,131.749,255.226,131.749,254.238,131.996z"/>
	<path style="fill:#DCFFFF;" d="M183.547,247.47h-37.65c-3.314,0-6-2.686-6-6v-37.65c0-3.314,2.686-6,6-6h37.65c3.314,0,6,2.686,6,6   v37.65C189.547,244.784,186.861,247.47,183.547,247.47z"/>
	<path style="fill:#DCFFFF;" d="M274.568,247.47h-37.65c-3.314,0-6-2.686-6-6v-37.65c0-3.314,2.686-6,6-6h37.65c3.314,0,6,2.686,6,6   v37.65C280.568,244.784,277.882,247.47,274.568,247.47z"/>
	<path style="fill:#DCFFFF;" d="M365.589,247.47h-37.65c-3.314,0-6-2.686-6-6v-37.65c0-3.314,2.686-6,6-6h37.65c3.314,0,6,2.686,6,6   v37.65C371.589,244.784,368.903,247.47,365.589,247.47z"/>
	<path style="fill:#AFEAFA;" d="M365.383,197.82h-20.685c3.428,0,6.206,2.779,6.206,6.206v37.238c0,3.428-2.779,6.206-6.206,6.206   h20.685c3.428,0,6.206-2.779,6.206-6.206v-37.238C371.589,200.599,368.811,197.82,365.383,197.82z"/>
	<path style="fill:#AFEAFA;" d="M274.362,197.82h-20.685c3.428,0,6.206,2.779,6.206,6.206v37.238c0,3.428-2.779,6.206-6.206,6.206   h20.685c3.427,0,6.206-2.779,6.206-6.206v-37.238C280.568,200.599,277.789,197.82,274.362,197.82z"/>
	<path style="fill:#AFEAFA;" d="M183.341,197.82h-20.685c3.428,0,6.206,2.779,6.206,6.206v37.238c0,3.428-2.779,6.206-6.206,6.206   h20.685c3.428,0,6.206-2.779,6.206-6.206v-37.238C189.547,200.599,186.769,197.82,183.341,197.82z"/>
	<path style="fill:#C6C5CA;" d="M448.339,57.149h-87.298c-3.314,0-6-2.686-6-6V38.324c0-3.314,2.686-6,6-6h87.298   c3.314,0,6,2.686,6,6v12.825C454.339,54.463,451.653,57.149,448.339,57.149z"/>
	<rect x="131.622" y="297.203" style="fill:#898890;" width="248.245" height="181.955"/>
	<rect x="359.179" y="297.203" style="fill:#74747A;" width="20.687" height="181.955"/>
	<path style="fill:#AAA9AD;" d="M448.133,32.324h-20.687c3.427,0,6.206,2.778,6.206,6.206v12.413c0,3.427-2.779,6.206-6.206,6.206   h20.687c3.428,0,6.206-2.779,6.206-6.206V38.53C454.339,35.102,451.561,32.324,448.133,32.324z"/>
	<path style="fill:#C6C5CA;" d="M390.415,305.393H121.073c-3.314,0-6-2.686-6-6v-12.825c0-3.314,2.686-6,6-6h269.342   c3.314,0,6,2.686,6,6v12.825C396.415,302.707,393.729,305.393,390.415,305.393z"/>
	<path style="fill:#AAA9AD;" d="M390.209,280.568h-20.687c3.428,0,6.206,2.778,6.206,6.206v12.413c0,3.427-2.779,6.206-6.206,6.206   h20.687c3.427,0,6.206-2.779,6.206-6.206v-12.413C396.415,283.346,393.637,280.568,390.209,280.568z"/>
</g>
<g>
	<path d="M503.986,471.662h-9.049v-29.737c0-4.142-3.357-7.5-7.5-7.5h-25.599V235.9l20.796,17.331   c1.401,1.168,3.105,1.738,4.798,1.738c2.115,0,4.216-0.89,5.698-2.619l16.55-19.308c1.307-1.523,1.947-3.508,1.779-5.508   c-0.168-2-1.13-3.85-2.672-5.135l-55.225-46.022V64.649h0.776c4.143,0,7.5-3.357,7.5-7.5V32.324c0-4.143-3.357-7.5-7.5-7.5h-99.299   c-4.143,0-7.5,3.358-7.5,7.5v24.824c0,4.143,3.357,7.5,7.5,7.5h0.776v51.16l-98.254-24.564c-0.079-0.02-0.158-0.03-0.237-0.047   c-0.159-0.034-0.317-0.07-0.478-0.094c-0.101-0.015-0.202-0.021-0.303-0.032c-0.145-0.016-0.288-0.034-0.435-0.041   c-0.123-0.006-0.245-0.002-0.368-0.002c-0.123,0-0.245-0.003-0.368,0.002c-0.147,0.007-0.292,0.025-0.438,0.041   c-0.1,0.011-0.199,0.017-0.299,0.032c-0.168,0.025-0.332,0.062-0.497,0.098c-0.073,0.016-0.146,0.025-0.218,0.043l-132.396,33.1   c-0.049,0.012-0.096,0.032-0.145,0.045c-0.18,0.049-0.356,0.104-0.531,0.165c-0.076,0.027-0.152,0.054-0.228,0.083   c-0.183,0.072-0.362,0.151-0.539,0.237c-0.064,0.031-0.129,0.06-0.192,0.093c-0.194,0.101-0.382,0.212-0.566,0.329   c-0.041,0.026-0.084,0.049-0.125,0.076c-0.223,0.148-0.438,0.307-0.644,0.477c-0.004,0.004-0.009,0.006-0.013,0.01L2.698,222.4   c-1.542,1.285-2.504,3.135-2.672,5.135c-0.168,2,0.473,3.984,1.779,5.508l16.551,19.307c1.482,1.729,3.583,2.619,5.698,2.619   c1.693,0,3.396-0.57,4.798-1.738l20.797-17.331v198.526H24.052c-4.143,0-7.5,3.358-7.5,7.5v29.737h-9.05   c-4.143,0-7.5,3.357-7.5,7.5c0,4.143,3.357,7.5,7.5,7.5h496.484c4.143,0,7.5-3.357,7.5-7.5   C511.486,475.02,508.129,471.662,503.986,471.662z M479.938,449.425v22.237h-18.099v-22.237H479.938z M486.556,236.972   l-27.431-22.86c-0.009-0.008-0.018-0.015-0.027-0.023l-63.456-52.882v-13.573l97.702,81.42L486.556,236.972z M130.847,137.476   l117.396-29.35v17.637l-117.396,29.35V137.476z M263.243,108.127l117.398,29.35v17.637l-117.398-29.35V108.127z M362.541,39.824   h84.299v9.824h-84.299V39.824z M438.563,64.649V82.75h-67.746V64.649H438.563z M370.817,97.75h67.746v66.127l-45.621-38.019   c-0.004-0.004-0.009-0.006-0.013-0.01c-0.205-0.17-0.421-0.329-0.644-0.477c-0.041-0.027-0.085-0.05-0.126-0.077   c-0.184-0.117-0.371-0.227-0.565-0.328c-0.063-0.033-0.128-0.062-0.192-0.092c-0.176-0.086-0.355-0.165-0.539-0.237   c-0.075-0.029-0.152-0.056-0.228-0.084c-0.174-0.061-0.351-0.116-0.53-0.165c-0.049-0.013-0.096-0.033-0.145-0.045l-19.143-4.786   V97.75z M24.931,236.972l-6.787-7.917l97.703-81.421v13.573l-63.46,52.885c-0.006,0.005-0.012,0.01-0.017,0.014L24.931,236.972z    M126.83,171.58l128.914-32.229l128.914,32.229l62.182,51.82v248.262h-59.473v-158.77h9.049c4.143,0,7.5-3.357,7.5-7.5v-24.824   c0-4.143-3.357-7.5-7.5-7.5H314.97c-4.143,0-7.5,3.357-7.5,7.5c0,4.143,3.357,7.5,7.5,7.5h73.945v9.824H122.573v-9.824h162.346   c4.143,0,7.5-3.357,7.5-7.5c0-4.143-3.357-7.5-7.5-7.5H115.073c-4.143,0-7.5,3.357-7.5,7.5v24.824c0,4.143,3.357,7.5,7.5,7.5h9.049   v158.77H64.649V223.399L126.83,171.58z M372.366,312.893v18.098H139.122v-18.098H372.366z M372.366,380.639H139.122V345.99h233.244   V380.639z M139.122,395.639h233.244v34.648H139.122V395.639z M139.122,445.287h233.244v26.375H139.122V445.287z M31.552,449.425   h18.098v22.237H31.552V449.425z"/>
	<path d="M139.897,254.97h49.649c4.143,0,7.5-3.357,7.5-7.5V197.82c0-4.143-3.357-7.5-7.5-7.5h-49.649c-4.143,0-7.5,3.357-7.5,7.5   v49.649C132.397,251.612,135.755,254.97,139.897,254.97z M147.397,205.32h34.649v34.649h-34.649V205.32z"/>
	<path d="M230.918,254.97h49.65c4.143,0,7.5-3.357,7.5-7.5V197.82c0-4.143-3.357-7.5-7.5-7.5h-49.65c-4.143,0-7.5,3.357-7.5,7.5   v49.649C223.418,251.612,226.775,254.97,230.918,254.97z M238.418,205.32h34.65v34.649h-34.65V205.32z"/>
	<path d="M321.939,254.97h49.649c4.143,0,7.5-3.357,7.5-7.5V197.82c0-4.143-3.357-7.5-7.5-7.5h-49.649c-4.143,0-7.5,3.357-7.5,7.5   v49.649C314.439,251.612,317.797,254.97,321.939,254.97z M329.439,205.32h34.649v34.649h-34.649V205.32z"/>
</g>















</svg>
